<?xml version="1.0" encoding="UTF-8" standalone="no"?>
<svg
   width="240.476mm"
   height="211.376mm"
   viewBox="0 0 909 799"
   version="1.1"
   id="svg1"
   sodipodi:docname="Logo.svg"
   inkscape:export-filename="LogoSVGv2.svg"
   inkscape:export-xdpi="316.87152"
   inkscape:export-ydpi="316.87152"
   inkscape:version="1.3.2 (091e20e, 2023-11-25, custom)"
   xmlns:inkscape="http://www.inkscape.org/namespaces/inkscape"
   xmlns:sodipodi="http://sodipodi.sourceforge.net/DTD/sodipodi-0.dtd"
   xmlns:xlink="http://www.w3.org/1999/xlink"
   xmlns="http://www.w3.org/2000/svg"
   xmlns:svg="http://www.w3.org/2000/svg">
  <defs
     id="defs1">
    <linearGradient
       id="linearGradient1"
       inkscape:collect="always">
      <stop
         style="stop-color:#001f3f;stop-opacity:1;"
         offset="0"
         id="stop1" />
      <stop
         style="stop-color:#39cccc;stop-opacity:1;"
         offset="1"
         id="stop2" />
    </linearGradient>
    <linearGradient
       inkscape:collect="always"
       xlink:href="#linearGradient1"
       id="linearGradient2"
       x1="455.01559"
       y1="799.00098"
       x2="455.01559"
       y2="78.143799"
       gradientUnits="userSpaceOnUse" />
  </defs>
  <sodipodi:namedview
     id="namedview1"
     pagecolor="#ffffff"
     bordercolor="#000000"
     borderopacity="0.25"
     inkscape:showpageshadow="2"
     inkscape:pageopacity="0.0"
     inkscape:pagecheckerboard="0"
     inkscape:deskcolor="#d1d1d1"
     inkscape:document-units="mm"
     inkscape:zoom="1"
     inkscape:cx="400"
     inkscape:cy="501.5"
     inkscape:window-width="2560"
     inkscape:window-height="1369"
     inkscape:window-x="1912"
     inkscape:window-y="-8"
     inkscape:window-maximized="1"
     inkscape:current-layer="svg1" />
  <path
     id="Unbenannt"
     fill="none"
     stroke="black"
     stroke-width="1"
     d="M 454.53,534.00            C 454.53,534.00 684.00,401.00 684.00,401.00              684.00,401.00 684.00,133.00 684.00,133.00              684.00,133.00 454.52,0.00 454.52,0.00              454.52,0.00 225.00,133.00 225.00,133.00              225.00,133.00 225.00,401.00 225.00,401.00              225.00,401.00 454.54,533.99 454.54,533.99M 141.99,397.01            C 141.99,397.01 142.00,85.00 142.00,85.00              142.00,85.00 -0.00,168.00 -0.00,168.00              -0.00,168.00 -0.00,479.00 -0.00,479.00              -0.00,479.00 142.00,397.01 142.00,397.01M 184.51,474.00            C 184.51,474.00 454.54,630.00 454.54,630.00              454.54,630.00 724.58,474.00 724.58,474.00              724.58,474.00 869.00,558.00 869.00,558.00              869.00,558.00 454.56,799.00 454.56,799.00              454.56,799.00 40.00,558.00 40.00,558.00              40.00,558.00 184.50,474.00 184.50,474.00M 767.00,397.00            C 767.00,397.00 767.00,85.00 767.00,85.00              767.00,85.00 909.00,168.00 909.00,168.00              909.00,168.00 909.00,479.00 909.00,479.00              909.00,479.00 767.00,397.00 767.00,397.00"
     style="fill-opacity:1;fill:url(#linearGradient2);stroke-width:0;stroke-dasharray:none" />
</svg>
